<svg xmlns="http://www.w3.org/2000/svg" version="1.1" xmlns:xlink="http://www.w3.org/1999/xlink" xmlns:svgjs="http://svgjs.dev/svgjs" width="2000" height="601" viewBox="0 0 2000 601"><g transform="matrix(1,0,0,1,-1.2121212121212466,-2.3728102389105175)"><svg viewBox="0 0 396 119" data-background-color="#ffffff" preserveAspectRatio="xMidYMid meet" height="601" width="2000" xmlns="http://www.w3.org/2000/svg" xmlns:xlink="http://www.w3.org/1999/xlink"><g id="tight-bounds" transform="matrix(1,0,0,1,0.2400000000000091,0.46982432351140346)"><svg viewBox="0 0 395.52 118.06035135297721" height="118.06035135297721" width="395.52"><g><svg viewBox="0 0 620.924921320564 185.34237048676553" height="118.06035135297721" width="395.52"><g transform="matrix(1,0,0,1,225.40492132056391,30.472206655754448)"><svg viewBox="0 0 395.52 124.39795717525664" height="124.39795717525664" width="395.52"><g id="textblocktransform"><svg viewBox="0 0 395.52 124.39795717525664" height="124.39795717525664" width="395.52" id="textblock"><g><svg viewBox="0 0 395.52 84.8509607791524" height="84.8509607791524" width="395.52"><g transform="matrix(1,0,0,1,0,0)"><svg width="395.52" viewBox="1.55 -35.7 189.92999999999998 40.75" height="84.8509607791524" data-palette-color="#9a00d1"><g class="wordmark-text-0" data-fill-palette-color="primary" id="text-0"><path d="M27.05-13.9L27.05-13.9Q24.05-13.9 22-15.28 19.95-16.65 19.95-18.75L19.95-18.75Q19.95-21.4 23.4-24.05L23.4-24.05Q24-24.5 24.3-24.5 24.6-24.5 24.6-24.3L24.6-24.3Q24.6-23.8 23.8-23.5L23.8-23.5Q21-21.25 21-18.95L21-18.95Q21-17.3 22.5-16.18 24-15.05 26.25-15.05L26.25-15.05Q31.15-15.05 35.5-19.75L35.5-19.75Q37.75-22.2 37.75-25.4 37.75-28.6 35.35-30.15L35.35-30.15Q33.35-31.55 29.95-31.55L29.95-31.55Q25.05-31.55 20.1-29.1L20.1-29.1Q14-26.15 9.08-19.93 4.15-13.7 4.15-7.95L4.15-7.95Q4.15-3.4 7.25-0.93 10.35 1.55 14.95 1.55L14.95 1.55Q20.2 1.55 25.25-1L25.25-1Q29.1-3 31.9-6.1L31.9-6.1Q32.7-7 33.15-7L33.15-7Q33.45-7 33.45-6.48 33.45-5.95 32.9-5.4L32.9-5.4Q30.25-2.6 25.25 0L25.25 0Q19.1 3.25 12.88 3.25 6.65 3.25 3.6-0.85L3.6-0.85Q1.55-3.55 1.55-7.3L1.55-7.3Q1.55-8.95 1.95-10.85L1.95-10.85Q3.3-17.25 9.05-23.3L9.05-23.3Q13.2-27.65 18.9-30.08 24.6-32.5 29.7-32.5L29.7-32.5Q32.4-32.5 34.4-31.85L34.4-31.85Q39.85-30.15 39.85-25L39.85-25Q39.85-21.85 38-19.55L38-19.55Q33.4-13.9 27.05-13.9ZM50.3 0.3L50.3 0.3Q50.05 0.35 49.22 0.35 48.4 0.35 47.57-0.3 46.75-0.95 46.75-1.98 46.75-3 47.12-4.25 47.5-5.5 47.65-6.15L47.65-6.15Q41.9 0.55 38.65 0.55L38.65 0.55Q36.6 0.55 36.4-2L36.4-2Q36.4-2.2 36.4-2.35L36.4-2.35Q36.4-4.5 39-8.15L39-8.15Q37.55-6.85 36.05-5.15L36.05-5.15Q35.85-4.95 35.55-4.95L35.55-4.95Q35.35-4.95 35.35-5.2 35.35-5.45 35.8-6.05L35.8-6.05 42.7-14.15Q44-15.65 45.35-15.65 46.7-15.65 46.7-14.75L46.7-14.75Q46.7-14.4 46.4-14.1L46.4-14.1Q44.4-12.25 41.37-7.95 38.35-3.65 38.35-1.6L38.35-1.6Q38.35-0.7 38.95-0.7L38.95-0.7Q41.05-0.7 45.05-4.85L45.05-4.85Q46.45-6.25 50.25-11.03 54.05-15.8 55.25-15.8L55.25-15.8Q57.05-15.8 57.05-14.4L57.05-14.4Q57.05-13.9 54.95-11.5L54.95-11.5Q52.1-8.05 50.6-5.88 49.1-3.7 49.1-2.35 49.1-1 49.85-1L49.85-1Q50.2-1 50.65-1.2L50.65-1.2Q54.1-2.7 58.9-8.2L58.9-8.2Q59.2-8.55 59.5-8.55 59.8-8.55 59.8-8.22 59.8-7.9 59.45-7.5L59.45-7.5Q57.3-5 54.4-2.48 51.5 0.05 50.3 0.3ZM82.75-20.35L82.75-20.35Q87.65-20.35 87.65-18.5L87.65-18.5Q87.65-18.1 87.35-17.6L87.35-17.6Q86.15-15.75 83-15.75L83-15.75Q80.95-15.75 78.8-16.48 76.65-17.2 75.55-18L75.55-18Q70.9-16.65 67.27-13.85 63.65-11.05 61.85-7.5L61.85-7.5Q60.9-5.6 60.9-3.8L60.9-3.8Q60.9-1 63.22 0.75 65.55 2.5 70.05 2.5L70.05 2.5Q71.3 2.5 72.65 2.35L72.65 2.35Q80.6 1.5 85.3-2.75L85.3-2.75Q89.25-6.25 89.25-10.1L89.25-10.1Q89.25-13.15 86.3-13.15L86.3-13.15Q82.75-13.15 78.15-9.35L78.15-9.35Q77-8.4 76.2-6.95 75.4-5.5 75.4-4.1 75.4-2.7 76.8-2.35L76.8-2.35Q77.3-2.15 77.3-1.85L77.3-1.85Q77.3-1.35 76.3-1.45L76.3-1.45Q73.9-1.5 73.9-4.6 73.9-7.7 77.05-10.4L77.05-10.4Q81.35-14.1 86.15-14.1L86.15-14.1Q89.75-14.1 90.7-11.85L90.7-11.85Q91.1-10.8 91.1-9.75L91.1-9.75Q91.1-5.1 85.95-1L85.95-1Q79.8 4 70.35 4L70.35 4Q64.5 4 61.1 1.83 57.7-0.35 57.7-3.85L57.7-3.85Q57.7-5.9 59-7.95L59-7.95Q63.6-15.25 74.7-18.8L74.7-18.8Q73.05-20.7 73.05-22.85 73.05-25 74.1-26.45L74.1-26.45Q76.15-29.25 80.25-31.05L80.25-31.05Q85.15-33.2 90.05-33.2L90.05-33.2Q92.9-33.2 94.62-32.27 96.35-31.35 96.35-29.43 96.35-27.5 94.92-26.18 93.5-24.85 91.95-24.85 90.4-24.85 90.4-25.6L90.4-25.6Q90.4-26.05 91.05-26.05L91.05-26.05 92.05-25.9Q93.05-25.9 93.87-26.98 94.7-28.05 94.7-29.2L94.7-29.2Q94.7-30.9 92.75-31.7L92.75-31.7Q91.5-32.2 90.4-32.2 89.3-32.2 88.85-32.15L88.85-32.15Q84.55-31.9 80.45-29.15L80.45-29.15Q75.65-26 75.65-22.05L75.65-22.05Q75.65-20.6 76.65-19.35L76.65-19.35Q79.85-20.35 82.75-20.35ZM77.5-18.55L77.5-18.55Q79.65-16.85 82.45-16.85 85.25-16.85 85.25-18.4L85.25-18.4Q85.25-19.1 82.75-19.1 80.25-19.1 77.5-18.55ZM93.49-3.35L93.49-3.35Q93.49-8.75 96.69-14.05L96.69-14.05Q92.99-16.4 92.99-21L92.99-21Q92.99-26.55 97.89-30.85L97.89-30.85Q103.39-35.7 112.09-35.7L112.09-35.7Q116.09-35.7 120.69-34.55L120.69-34.55Q121.74-34.3 129.64-30.68 137.54-27.05 140.99-27.05L140.99-27.05Q143.29-27.05 144.44-28.35L144.44-28.35Q145.04-29 145.04-29.75 145.04-30.5 144.39-31.1L144.39-31.1Q144.04-31.6 144.04-31.75 144.04-31.9 144.32-31.9 144.59-31.9 145.27-31.03 145.94-30.15 145.94-28.98 145.94-27.8 144.37-26.73 142.79-25.65 140.39-25.65L140.39-25.65Q136.64-25.65 128.74-29.28 120.84-32.9 118.82-33.3 116.79-33.7 114.19-33.7L114.19-33.7Q103.84-33.7 97.89-27L97.89-27Q97.19-26.25 96.24-23.98 95.29-21.7 95.29-19.6L95.29-19.6Q95.29-16.7 97.34-15.1L97.34-15.1Q99.94-18.9 103.49-21.15 107.04-23.4 110.69-23.4L110.69-23.4Q115.19-23.4 115.19-19.9L115.19-19.9Q115.19-15.7 110.27-10.78 105.34-5.85 101.14-5.85L101.14-5.85Q98.44-5.85 98.44-8.15L98.44-8.15Q98.44-8.95 98.87-9.55 99.29-10.15 99.89-10L99.89-10 99.79-8.85Q99.79-8.1 102.09-8.1L102.09-8.1Q105.49-8.1 109.27-11.6 113.04-15.1 113.84-18.45L113.84-18.45Q114.04-19.2 114.04-19.8L114.04-19.8Q114.04-22.05 111.17-22.05 108.29-22.05 105.22-19.85 102.14-17.65 99.44-14.05L99.44-14.05Q99.64-13.95 100.99-13.65L100.99-13.65 103.99-13.55Q106.19-13.45 106.19-13.05L106.19-13.05Q106.19-12.35 104.09-12.35L104.09-12.35Q103.94-12.35 103.79-12.35L103.79-12.35Q100.74-12.35 98.79-13.1L98.79-13.1Q94.94-7.2 94.94-2.25L94.94-2.25Q94.94 4.15 99.89 4.15L99.89 4.15Q105.49 4.15 111.54-3.65L111.54-3.65 121.34-18.25Q126.84-26.25 130.89-26.45L130.89-26.45 132.79-26Q133.69-25.5 133.69-24.5 133.69-23.5 133.19-23.5L133.19-23.5 131.59-23.75Q128.14-23.75 122.74-16.3L122.74-16.3 112.79-2.4Q106.39 5.05 100.54 5.05L100.54 5.05Q96.54 5.05 95.02 2.9 93.49 0.75 93.49-3.35ZM127.69 0.65L127.69 0.65Q127.14 0.65 126.69 0.5L126.69 0.5Q123.49-0.4 123.49-3.1L123.49-3.1Q123.49-6.6 127.89-11.2 132.29-15.8 135.79-15.8L135.79-15.8Q136.94-15.8 137.67-15.18 138.39-14.55 138.39-13.65L138.39-13.65Q138.39-10.85 134.17-8.3 129.94-5.75 127.29-5.75L127.29-5.75Q126.89-5.75 126.59-5.85L126.59-5.85Q125.84-4.5 125.84-3L125.84-3Q125.84-0.4 128.32-0.4 130.79-0.4 134.74-3.75L134.74-3.75Q137.79-6.2 139.94-8.95L139.94-8.95Q140.39-9.55 140.72-9.55 141.04-9.55 141.04-9.25 141.04-8.95 140.64-8.4L140.64-8.4Q137.94-4.85 134.14-2.1 130.34 0.65 127.69 0.65ZM137.14-13.75L137.14-13.75Q137.14-14.35 135.87-14.35 134.59-14.35 132.24-12.4L132.24-12.4Q129.09-9.8 127.34-6.95L127.34-6.95Q127.64-6.85 127.99-6.85L127.99-6.85Q129.89-6.85 133.07-8.88 136.24-10.9 137.04-13.3L137.04-13.3Q137.14-13.55 137.14-13.75ZM141.79 0.65L141.79 0.65Q141.24 0.65 140.79 0.5L140.79 0.5Q137.59-0.4 137.59-3.1L137.59-3.1Q137.59-6.6 141.99-11.2 146.39-15.8 149.89-15.8L149.89-15.8Q151.04-15.8 151.76-15.18 152.49-14.55 152.49-13.48 152.49-12.4 151.84-11.23 151.19-10.05 149.89-10.05 148.59-10.05 148.59-10.85L148.59-10.85Q148.59-11.4 149.26-12.53 149.94-13.65 149.94-13.73 149.94-13.8 149.79-13.8L149.79-13.8Q148.39-13.65 145.96-11.8 143.54-9.95 142.64-8.7L142.64-8.7 140.69-5.85Q140.19-5.05 139.96-3.95 139.74-2.85 139.74-2.3 139.74-1.75 140.36-1.05 140.99-0.35 142.14-0.35L142.14-0.35Q144.64-0.35 148.34-3.28 152.04-6.2 154.04-8.85L154.04-8.85Q154.29-9.15 154.64-9.15 154.99-9.15 154.99-8.95 154.99-8.75 154.74-8.45L154.74-8.45Q151.99-4.8 148.16-2.08 144.34 0.65 141.79 0.65ZM163.99-0.2L163.99-0.2Q161.04-0.2 161.04-3.65L161.04-3.65Q161.04-5.6 162.41-7.98 163.79-10.35 165.79-13.55L165.79-13.55Q159.39-10.35 154.19-4.1L154.19-4.1Q151.29 0.25 150.79 0.25L150.79 0.25Q149.34 0.25 149.34-0.6L149.34-0.6Q149.34-1.05 149.94-2.2L149.94-2.2Q154.79-10.85 157.29-14.85L157.29-14.85Q163.24-24.4 165.69-25.2L165.69-25.2Q165.79-25.25 165.89-25.25L165.89-25.25Q166.54-25.25 166.79-24.2L166.79-24.2Q166.64-23.15 161.59-16.6L161.59-16.6Q156.34-9.95 155.64-7.9L155.64-7.9Q157.49-9.25 162.09-12.45L162.09-12.45Q167.04-15.9 168.64-15.9 170.24-15.9 170.24-14.65L170.24-14.65Q170.24-14.45 170.21-14.38 170.19-14.3 166.74-9.65 163.29-5 163.29-2.8L163.29-2.8Q163.29-1.65 164.14-1.65L164.14-1.65Q166.84-1.75 172.24-8.15L172.24-8.15Q172.69-8.6 172.91-8.6 173.14-8.6 173.14-8.3L173.14-8.3Q173.14-7.3 168.19-2.9L168.19-2.9Q165.09-0.2 163.99-0.2ZM181.73-1.8L180.13-0.75Q178.68 0.1 176.56 0.1 174.43 0.1 173.31-1.3 172.18-2.7 171.38-5.75L171.38-5.75Q170.48-4.85 170.13-4.85L170.13-4.85Q169.88-4.85 169.88-5.2 169.88-5.55 170.13-5.8L170.13-5.8Q171.78-7.85 175.73-11.7L175.73-11.7 182.03-17.6Q184.73-20.15 185.23-20.15L185.23-20.15Q186.83-20.15 186.83-18.95L186.83-18.95Q186.83-18.35 186.36-17.78 185.88-17.2 185.66-16.88 185.43-16.55 185.18-16.25L185.18-16.25Q184.28-14.7 183.36-9.85 182.43-5 181.93-3.1L181.93-3.1Q186.08-3.15 190.48-8.5L190.48-8.5Q190.98-9 191.23-9 191.48-9 191.48-8.68 191.48-8.35 191.03-7.8L191.03-7.8Q188.13-4.4 185.63-3.05L185.63-3.05Q184.13-2.3 181.73-1.8L181.73-1.8ZM173.38-6.3L173.38-6.3Q173.38-4.6 174.51-3.53 175.63-2.45 177.03-2.45 178.43-2.45 179.18-3L179.18-3Q180.18-3.55 181.16-7.6 182.13-11.65 182.33-14.75L182.33-14.75 182.53-16.45Q179.78-14.4 176.66-11.15 173.53-7.9 173.43-6.85L173.43-6.85Q173.38-6.55 173.38-6.3Z" fill="#9a00d1" data-fill-palette-color="primary"></path></g></svg></g></svg></g><g transform="matrix(1,0,0,1,0,104.8822361960516)"><svg viewBox="0 0 395.52 19.515720979205053" height="19.515720979205053" width="395.52"><g transform="matrix(1,0,0,1,0,0)"><svg width="395.52" viewBox="1 -37.5 765.07 37.75" height="19.515720979205053" data-palette-color="#9a00d1"><path d="M11.35-1.65L11.35-34 2.75-34 1.95-27.4 1-27.8 1.5-34 1.45-34 1.55-34.4 1.6-35 1.7-34.95 1.7-35 24.4-35 25.05-27.8 24.05-27.4 23.25-34 14.5-34 14.5-0.95 18.15-0.75Q18.15-0.7 18.1 0L18.1 0 8.1 0.05Q8.1-0.4 8.15-0.65L8.15-0.65 10.75-1Q11.25-1.05 11.35-1.65L11.35-1.65ZM73.32 0.2Q68.09 0.2 64.87-2.8 61.64-5.8 61.64-11.98 61.64-18.15 65.07-21.68 68.49-25.2 73.69-25.2 78.89-25.2 82.14-22.2 85.39-19.2 85.39-13.03 85.39-6.85 81.97-3.33 78.54 0.2 73.32 0.2ZM73.64-24.3Q69.89-24.3 67.39-21.05 64.89-17.8 64.89-12.23 64.89-6.65 67.27-3.68 69.64-0.7 73.39-0.7 77.14-0.7 79.64-3.95 82.14-7.2 82.14-12.75 82.14-18.3 79.77-21.3 77.39-24.3 73.64-24.3ZM191.63-1.65L191.63-34 183.03-34 182.23-27.4 181.28-27.8 181.78-34 181.73-34 181.83-34.4 181.88-35 181.98-34.95 181.98-35 204.68-35 205.33-27.8 204.33-27.4 203.53-34 194.78-34 194.78-0.95 198.43-0.75Q198.43-0.7 198.38 0L198.38 0 188.38 0.05Q188.38-0.4 188.43-0.65L188.43-0.65 191.03-1Q191.53-1.05 191.63-1.65L191.63-1.65ZM253.27-35.45L253.27-35.45 253.27-21.9Q259.82-26.4 265.12-24.7L265.12-24.7Q266.32-24.35 267.2-23.68 268.07-23 268.72-21.65 269.37-20.3 269.37-18.4L269.37-18.4 269.37-1 273.12-0.75Q273.12-0.7 273.07 0L273.07 0 263.07 0.05Q263.07-0.4 263.12-0.65L263.12-0.65 265.72-1Q266.02-1 266.12-1.45L266.12-1.45 266.12-17.1Q266.12-19.05 265.6-20.48 265.07-21.9 264.37-22.55 263.67-23.2 262.72-23.55L262.72-23.55Q261.42-24.05 260.42-23.95L260.42-23.95Q257.17-23.85 253.27-21.3L253.27-21.3 253.27-1 257.02-0.75Q257.02-0.7 256.97 0L256.97 0 246.97 0.05Q246.97-0.4 247.02-0.65L247.02-0.65 249.62-1Q250.02-1.05 250.02-1.7L250.02-1.7 250.02-35.7Q250.02-36.25 249.72-36.25L249.72-36.25 246.72-36.35 246.77-37.05Q249.47-37.5 250.87-37.5 252.27-37.5 252.77-36.85 253.27-36.2 253.27-35.45ZM316.47-11.5L316.47-11.5Q316.47-0.7 324.87-0.7L324.87-0.7Q327.07-0.7 329.57-1.18 332.07-1.65 332.77-2.05L332.77-2.05 333.12-1.55Q331.97-0.8 329.34-0.3 326.72 0.2 324.54 0.2 322.37 0.2 320.64-0.25 318.92-0.7 317.12-1.85 315.32-3 314.27-5.45 313.22-7.9 313.22-11.45L313.22-11.45Q313.22-18.05 316.62-21.55L316.62-21.55Q320.17-25.2 324.87-25.2 329.57-25.2 332.04-22.6 334.52-20 334.52-15.3L334.52-15.3Q334.52-14.3 334.37-13.15L334.37-13.15 316.52-13.15Q316.47-12.6 316.47-11.5ZM331.57-15.65L331.57-15.65Q331.57-19.4 329.92-21.78 328.27-24.15 325.42-24.15L325.42-24.15Q321.72-24.15 319.17-20.9L319.17-20.9Q317.12-18.35 316.62-14.1L316.62-14.1 331.52-14.1Q331.57-14.65 331.57-15.65ZM433.85-33.95L431.2-34.25 431.25-35 452.65-35 452.6-34.85 453.25-27.8 452.25-27.4 451.45-34 437.85-34 437.85-17.85 449.8-17.85Q450.05-17.8 450.25-17.98 450.45-18.15 450.45-18.45L450.45-18.45 450.65-21.9 451.45-22 451.45-13.45Q451.4-13.45 450.7-13.4L450.7-13.4 450.5-16.85 437.85-16.85 437.85-0.95 441.3-0.75Q441.3-0.7 441.25 0L441.25 0 431.2 0.05 431.25-0.65 433.85-1Q434.35-1.05 434.45-1.65L434.45-1.65 434.45-33.3Q434.35-33.9 433.85-33.95L433.85-33.95ZM497.4-23.95L494.8-24.2 494.75-24.95 501.5-25 501.5-7.6Q501.5-5.65 502.05-4.23 502.6-2.8 503.27-2.15 503.95-1.5 504.85-1.15L504.85-1.15Q506.25-0.65 507.2-0.75L507.2-0.75Q510.25-0.8 514.15-3.9L514.15-3.9 514.15-23.25Q513.95-23.85 513.3-23.95L513.3-23.95 510.7-24.2Q510.65-24.5 510.65-24.95L510.65-24.95 517.4-25 517.4-2.3Q517.5-1.05 518.2-1.05L518.2-1.05 521.2-0.9 521.15-0.15Q518.75 0.25 516.15 0.25L516.15 0.25Q515.55 0.2 514.85-0.43 514.15-1.05 514.15-2L514.15-2 514.15-2.9Q509.6 0.15 505.55 0.15L505.55 0.15Q503.85 0.15 501.55-0.7L501.55-0.7Q500.05-1.25 499.15-2.78 498.25-4.3 498.25-6.6L498.25-6.6 498.25-23.2Q498.25-23.45 497.97-23.68 497.7-23.9 497.4-23.95L497.4-23.95ZM573.44-0.95L573.44-0.95 575.39-1.05 575.54-0.55Q575.49-0.55 574.84-0.4L574.84-0.4Q573.34-0.05 571.49-0.05L571.49-0.05Q569.79-0.15 568.39-0.63 566.99-1.1 565.79-2.63 564.59-4.15 564.59-6.55L564.59-6.55 564.59-24.1 562.04-24.1 562.44-24.5 564.64-24.95 565.04-29.75 567.84-30 567.84-25 573.89-25 573.89-24.1 567.84-24.1 567.84-7.4Q567.84-3.6 569.44-2.27 571.04-0.95 573.44-0.95ZM620.53-23.95L617.93-24.2 617.88-24.95 624.63-25 624.63-7.6Q624.63-5.65 625.18-4.23 625.73-2.8 626.41-2.15 627.08-1.5 627.98-1.15L627.98-1.15Q629.38-0.65 630.33-0.75L630.33-0.75Q633.38-0.8 637.28-3.9L637.28-3.9 637.28-23.25Q637.08-23.85 636.43-23.95L636.43-23.95 633.83-24.2Q633.78-24.5 633.78-24.95L633.78-24.95 640.53-25 640.53-2.3Q640.63-1.05 641.33-1.05L641.33-1.05 644.33-0.9 644.28-0.15Q641.88 0.25 639.28 0.25L639.28 0.25Q638.68 0.2 637.98-0.43 637.28-1.05 637.28-2L637.28-2 637.28-2.9Q632.73 0.15 628.68 0.15L628.68 0.15Q626.98 0.15 624.68-0.7L624.68-0.7Q623.18-1.25 622.28-2.78 621.38-4.3 621.38-6.6L621.38-6.6 621.38-23.2Q621.38-23.45 621.11-23.68 620.83-23.9 620.53-23.95L620.53-23.95ZM693.23-22.95L693.23-22.95 693.23-18.95Q697.18-24.75 700.98-24.85L700.98-24.85Q701.28-24.85 701.58-24.85L701.58-24.85 704.38-24.5 703.08-21.5Q702.13-22.45 700.63-22.45L700.63-22.45Q696.98-22.4 693.23-17.6L693.23-17.6 693.23-1 697.48-0.75Q697.48-0.7 697.43 0L697.43 0 686.93 0.05Q686.93-0.4 686.98-0.65L686.98-0.65 689.58-1Q689.98-1.05 689.98-1.7L689.98-1.7 689.98-23.4Q689.88-23.75 689.68-23.75L689.68-23.75 686.68-23.85 686.73-24.55Q689.43-25 690.83-25 692.23-25 692.73-24.35 693.23-23.7 693.23-22.95ZM748.02-11.5L748.02-11.5Q748.02-0.7 756.42-0.7L756.42-0.7Q758.62-0.7 761.12-1.18 763.62-1.65 764.32-2.05L764.32-2.05 764.67-1.55Q763.52-0.8 760.89-0.3 758.27 0.2 756.09 0.2 753.92 0.2 752.19-0.25 750.47-0.7 748.67-1.85 746.87-3 745.82-5.45 744.77-7.9 744.77-11.45L744.77-11.45Q744.77-18.05 748.17-21.55L748.17-21.55Q751.72-25.2 756.42-25.2 761.12-25.2 763.59-22.6 766.07-20 766.07-15.3L766.07-15.3Q766.07-14.3 765.92-13.15L765.92-13.15 748.07-13.15Q748.02-12.6 748.02-11.5ZM763.12-15.65L763.12-15.65Q763.12-19.4 761.47-21.78 759.82-24.15 756.97-24.15L756.97-24.15Q753.27-24.15 750.72-20.9L750.72-20.9Q748.67-18.35 748.17-14.1L748.17-14.1 763.07-14.1Q763.12-14.65 763.12-15.65Z" opacity="1" transform="matrix(1,0,0,1,0,0)" fill="#9a00d1" class="slogan-text-1" data-fill-palette-color="secondary" id="text-1"></path></svg></g></svg></g></svg></g></svg></g><g><svg viewBox="0 0 185.34237048676553 185.34237048676553" height="185.34237048676553" width="185.34237048676553"><g><svg></svg></g><g id="icon-0"><svg viewBox="0 0 185.34237048676553 185.34237048676553" height="185.34237048676553" width="185.34237048676553"><g><path d="M0 92.671c0-51.181 41.49-92.671 92.671-92.671 51.181 0 92.671 41.49 92.671 92.671 0 51.181-41.49 92.671-92.671 92.671-51.181 0-92.671-41.49-92.671-92.671zM92.671 177.69c46.955 0 85.019-38.064 85.019-85.019 0-46.955-38.064-85.019-85.019-85.019-46.955 0-85.019 38.064-85.019 85.019 0 46.955 38.064 85.019 85.019 85.019z" data-fill-palette-color="accent" fill="#000000" stroke="transparent"></path></g><g transform="matrix(1,0,0,1,42.11038234673852,44.9801146237628)"><svg viewBox="0 0 101.1216057932885 95.38214123923993" height="95.38214123923993" width="101.1216057932885"><g><svg xmlns="http://www.w3.org/2000/svg" xmlns:xlink="http://www.w3.org/1999/xlink" version="1.1" x="0" y="0" viewBox="12.208 14.353 75.584 71.29400000000001" enable-background="new 0 0 100 100" xml:space="preserve" height="95.38214123923993" width="101.1216057932885" class="icon-dxe-0" data-fill-palette-color="accent" id="dxe-0"><path fill="#000000" d="M81.653 48.936C78.609 48.936 76.082 51.165 75.602 54.075H73.582A3.02 3.02 0 0 1 71.241 52.972L67.97 49.013A5.38 5.38 0 0 0 63.814 47.056H60.827V39.232A4.93 4.93 0 0 0 55.901 34.306H51.062V33.164C51.062 32.582 51.289 32.033 51.7 31.62L55.473 27.834A2.2 2.2 0 0 1 57.022 27.191H62.666C63.146 30.101 65.672 32.33 68.717 32.33A6.146 6.146 0 0 0 74.856 26.191 6.146 6.146 0 0 0 68.717 20.051C65.673 20.051 63.146 22.28 62.666 25.191H57.022A4.22 4.22 0 0 0 54.057 26.421L50.283 30.208A4.17 4.17 0 0 0 49.062 33.163V34.305H44.899V30.862A5.7 5.7 0 0 0 43.225 26.811L37.614 21.181A5.78 5.78 0 0 0 33.55 19.493H24.398C23.918 16.582 21.392 14.353 18.347 14.353A6.146 6.146 0 0 0 12.208 20.493 6.146 6.146 0 0 0 18.347 26.632C21.391 26.632 23.918 24.403 24.398 21.493H33.55C34.536 21.493 35.502 21.893 36.198 22.593L41.809 28.223A3.7 3.7 0 0 1 42.899 30.862V34.305H37.603A4.93 4.93 0 0 0 32.678 39.231V42.397H29.723A5.47 5.47 0 0 0 26.035 43.823L20.625 48.743A5.5 5.5 0 0 0 18.831 52.799V64.316C15.759 64.65 13.359 67.258 13.359 70.418A6.146 6.146 0 0 0 19.499 76.557 6.146 6.146 0 0 0 25.638 70.418C25.638 67.49 23.577 65.039 20.831 64.428V52.799C20.831 51.82 21.246 50.882 21.971 50.224L27.381 45.303A3.47 3.47 0 0 1 29.723 44.398H32.678V57.53A4.93 4.93 0 0 0 37.603 62.455H44.356V73.457C41.445 73.937 39.216 76.463 39.216 79.507 39.216 82.893 41.97 85.647 45.356 85.647S51.496 82.893 51.496 79.507C51.496 76.463 49.267 73.937 46.356 73.457V62.454H55.901A4.93 4.93 0 0 0 60.823 57.565C60.909 57.589 60.993 57.618 61.086 57.618H62.513C63.219 57.618 63.896 57.919 64.376 58.45L70.574 65.169A6.1 6.1 0 0 0 69.029 69.227 6.146 6.146 0 0 0 75.169 75.367 6.146 6.146 0 0 0 81.308 69.227 6.146 6.146 0 0 0 75.169 63.088 6.1 6.1 0 0 0 72.127 63.902L65.854 57.101A4.52 4.52 0 0 0 62.513 55.618H61.086C60.994 55.618 60.911 55.647 60.826 55.67V49.055H63.813C64.828 49.055 65.781 49.504 66.428 50.286L69.699 54.244A5.02 5.02 0 0 0 73.582 56.073H75.602C76.082 58.984 78.608 61.213 81.653 61.213A6.146 6.146 0 0 0 87.792 55.073 6.145 6.145 0 0 0 81.653 48.936M68.717 22.052C70.999 22.052 72.856 23.909 72.856 26.192S71 30.331 68.717 30.331A4.14 4.14 0 0 1 64.586 26.279C64.589 26.249 64.604 26.223 64.604 26.192S64.589 26.135 64.586 26.105A4.14 4.14 0 0 1 68.717 22.052M18.347 24.633C16.065 24.633 14.208 22.777 14.208 20.494S16.064 16.354 18.347 16.354 22.487 18.211 22.487 20.494 20.629 24.633 18.347 24.633M23.639 70.417C23.639 72.699 21.783 74.556 19.5 74.556S15.36 72.7 15.36 70.417 17.217 66.277 19.5 66.277 23.639 68.135 23.639 70.417M49.496 79.506C49.496 81.788 47.639 83.646 45.356 83.646S41.216 81.789 41.216 79.506 43.073 75.367 45.356 75.367 49.496 77.224 49.496 79.506M79.309 69.228C79.309 71.51 77.453 73.368 75.17 73.368S71.03 71.511 71.03 69.228C71.03 68.041 71.54 66.976 72.343 66.221A1 1 0 0 0 72.712 66.013C72.784 65.947 72.828 65.866 72.876 65.786A4.1 4.1 0 0 1 75.169 65.089 4.144 4.144 0 0 1 79.309 69.228M58.827 57.529A2.93 2.93 0 0 1 55.901 60.454H37.604A2.93 2.93 0 0 1 34.679 57.529V39.231A2.93 2.93 0 0 1 37.604 36.305H55.902A2.93 2.93 0 0 1 58.828 39.231V57.529zM81.653 59.214C79.371 59.214 77.513 57.357 77.513 55.074S79.37 50.935 81.653 50.935 85.792 52.791 85.792 55.074 83.936 59.214 81.653 59.214" data-fill-palette-color="accent"></path><rect x="38.961" y="40.639" fill="#000000" width="3" height="3" data-fill-palette-color="accent"></rect><rect x="45.215" y="40.639" fill="#000000" width="3" height="3" data-fill-palette-color="accent"></rect><rect x="45.215" y="46.88" fill="#000000" width="3" height="3" data-fill-palette-color="accent"></rect><rect x="51.544" y="46.88" fill="#000000" width="3" height="3" data-fill-palette-color="accent"></rect><rect x="38.961" y="53.047" fill="#000000" width="3" height="3" data-fill-palette-color="accent"></rect><rect x="51.544" y="53.047" fill="#000000" width="3" height="3" data-fill-palette-color="accent"></rect></svg></g></svg></g></svg></g></svg></g></svg></g><defs></defs></svg><rect width="395.52" height="118.06035135297721" fill="none" stroke="none" visibility="hidden"></rect></g></svg></g></svg>